<mxfile host="app.diagrams.net" agent="Mozilla/5.0 (Windows NT 10.0; Win64; x64) AppleWebKit/537.36 (KHTML, like Gecko) Chrome/127.0.0.0 Safari/537.36 OPR/113.0.0.0" version="24.7.16">
  <diagram id="R2lEEEUBdFMjLlhIrx00" name="Page-1">
    <mxGraphModel dx="1187" dy="1784" grid="1" gridSize="10" guides="1" tooltips="1" connect="1" arrows="1" fold="1" page="1" pageScale="1" pageWidth="850" pageHeight="1100" math="0" shadow="0" extFonts="Permanent Marker^https://fonts.googleapis.com/css?family=Permanent+Marker">
      <root>
        <mxCell id="0" />
        <mxCell id="1" parent="0" />
        <mxCell id="luMjSmkIxEWVxP0uQIQx-23" value="" style="edgeStyle=orthogonalEdgeStyle;rounded=0;orthogonalLoop=1;jettySize=auto;html=1;endArrow=none;endFill=0;" edge="1" parent="1" source="luMjSmkIxEWVxP0uQIQx-5" target="luMjSmkIxEWVxP0uQIQx-22">
          <mxGeometry relative="1" as="geometry" />
        </mxCell>
        <mxCell id="luMjSmkIxEWVxP0uQIQx-47" style="edgeStyle=orthogonalEdgeStyle;rounded=0;orthogonalLoop=1;jettySize=auto;html=1;exitX=0.75;exitY=0;exitDx=0;exitDy=0;entryX=0.5;entryY=1;entryDx=0;entryDy=0;endArrow=none;endFill=0;" edge="1" parent="1" source="luMjSmkIxEWVxP0uQIQx-5" target="luMjSmkIxEWVxP0uQIQx-46">
          <mxGeometry relative="1" as="geometry" />
        </mxCell>
        <mxCell id="luMjSmkIxEWVxP0uQIQx-5" value="Paciente" style="swimlane;childLayout=stackLayout;horizontal=1;startSize=50;horizontalStack=0;rounded=1;fontSize=14;fontStyle=0;strokeWidth=2;resizeParent=0;resizeLast=1;shadow=0;dashed=0;align=center;arcSize=4;whiteSpace=wrap;html=1;" vertex="1" parent="1">
          <mxGeometry x="60" y="70" width="160" height="130" as="geometry" />
        </mxCell>
        <mxCell id="luMjSmkIxEWVxP0uQIQx-6" value="+&lt;u&gt;Rut&lt;/u&gt;&lt;br&gt;+Nombre&lt;br&gt;+Fecha de Nacimiento&lt;div&gt;+Correo&lt;/div&gt;&lt;div&gt;+Contraseña&lt;/div&gt;" style="align=left;strokeColor=none;fillColor=none;spacingLeft=4;fontSize=12;verticalAlign=top;resizable=0;rotatable=0;part=1;html=1;" vertex="1" parent="luMjSmkIxEWVxP0uQIQx-5">
          <mxGeometry y="50" width="160" height="80" as="geometry" />
        </mxCell>
        <mxCell id="luMjSmkIxEWVxP0uQIQx-30" value="" style="edgeStyle=orthogonalEdgeStyle;rounded=0;orthogonalLoop=1;jettySize=auto;html=1;endArrow=none;endFill=0;" edge="1" parent="1" source="luMjSmkIxEWVxP0uQIQx-7" target="luMjSmkIxEWVxP0uQIQx-29">
          <mxGeometry relative="1" as="geometry" />
        </mxCell>
        <mxCell id="luMjSmkIxEWVxP0uQIQx-37" value="" style="edgeStyle=orthogonalEdgeStyle;rounded=0;orthogonalLoop=1;jettySize=auto;html=1;endArrow=none;endFill=0;" edge="1" parent="1" source="luMjSmkIxEWVxP0uQIQx-7" target="luMjSmkIxEWVxP0uQIQx-36">
          <mxGeometry relative="1" as="geometry" />
        </mxCell>
        <mxCell id="luMjSmkIxEWVxP0uQIQx-7" value="Medico" style="swimlane;childLayout=stackLayout;horizontal=1;startSize=50;horizontalStack=0;rounded=1;fontSize=14;fontStyle=0;strokeWidth=2;resizeParent=0;resizeLast=1;shadow=0;dashed=0;align=center;arcSize=4;whiteSpace=wrap;html=1;" vertex="1" parent="1">
          <mxGeometry x="425" y="370" width="160" height="120" as="geometry" />
        </mxCell>
        <mxCell id="luMjSmkIxEWVxP0uQIQx-8" value="+Rut&lt;br&gt;+Nombre&lt;br&gt;&lt;div&gt;+Especialidad&lt;/div&gt;" style="align=left;strokeColor=none;fillColor=none;spacingLeft=4;fontSize=12;verticalAlign=top;resizable=0;rotatable=0;part=1;html=1;" vertex="1" parent="luMjSmkIxEWVxP0uQIQx-7">
          <mxGeometry y="50" width="160" height="70" as="geometry" />
        </mxCell>
        <mxCell id="luMjSmkIxEWVxP0uQIQx-9" value="Cita" style="swimlane;childLayout=stackLayout;horizontal=1;startSize=50;horizontalStack=0;rounded=1;fontSize=14;fontStyle=0;strokeWidth=2;resizeParent=0;resizeLast=1;shadow=0;dashed=0;align=center;arcSize=4;whiteSpace=wrap;html=1;" vertex="1" parent="1">
          <mxGeometry x="425" y="70" width="160" height="130" as="geometry" />
        </mxCell>
        <mxCell id="luMjSmkIxEWVxP0uQIQx-10" value="&lt;div&gt;+&lt;u&gt;id_Cita&lt;/u&gt;&lt;/div&gt;+Diagnostico&lt;br&gt;+Tratamiento&lt;div&gt;&lt;br&gt;&lt;/div&gt;" style="align=left;strokeColor=none;fillColor=none;spacingLeft=4;fontSize=12;verticalAlign=top;resizable=0;rotatable=0;part=1;html=1;" vertex="1" parent="luMjSmkIxEWVxP0uQIQx-9">
          <mxGeometry y="50" width="160" height="80" as="geometry" />
        </mxCell>
        <mxCell id="luMjSmkIxEWVxP0uQIQx-18" value="" style="edgeStyle=orthogonalEdgeStyle;rounded=0;orthogonalLoop=1;jettySize=auto;html=1;endArrow=none;endFill=0;" edge="1" parent="1" source="luMjSmkIxEWVxP0uQIQx-11" target="luMjSmkIxEWVxP0uQIQx-17">
          <mxGeometry relative="1" as="geometry" />
        </mxCell>
        <mxCell id="luMjSmkIxEWVxP0uQIQx-31" style="edgeStyle=orthogonalEdgeStyle;rounded=0;orthogonalLoop=1;jettySize=auto;html=1;entryX=0;entryY=0.5;entryDx=0;entryDy=0;endArrow=none;endFill=0;" edge="1" parent="1" source="luMjSmkIxEWVxP0uQIQx-11" target="luMjSmkIxEWVxP0uQIQx-29">
          <mxGeometry relative="1" as="geometry" />
        </mxCell>
        <mxCell id="luMjSmkIxEWVxP0uQIQx-11" value="Ficha" style="swimlane;childLayout=stackLayout;horizontal=1;startSize=50;horizontalStack=0;rounded=1;fontSize=14;fontStyle=0;strokeWidth=2;resizeParent=0;resizeLast=1;shadow=0;dashed=0;align=center;arcSize=4;whiteSpace=wrap;html=1;" vertex="1" parent="1">
          <mxGeometry x="60" y="370" width="160" height="120" as="geometry" />
        </mxCell>
        <mxCell id="luMjSmkIxEWVxP0uQIQx-12" value="+i&lt;u&gt;d_ficha&lt;/u&gt;" style="align=left;strokeColor=none;fillColor=none;spacingLeft=4;fontSize=12;verticalAlign=top;resizable=0;rotatable=0;part=1;html=1;" vertex="1" parent="luMjSmkIxEWVxP0uQIQx-11">
          <mxGeometry y="50" width="160" height="70" as="geometry" />
        </mxCell>
        <mxCell id="luMjSmkIxEWVxP0uQIQx-13" value="Examen" style="swimlane;childLayout=stackLayout;horizontal=1;startSize=50;horizontalStack=0;rounded=1;fontSize=14;fontStyle=0;strokeWidth=2;resizeParent=0;resizeLast=1;shadow=0;dashed=0;align=center;arcSize=4;whiteSpace=wrap;html=1;" vertex="1" parent="1">
          <mxGeometry x="420" y="-150" width="160" height="120" as="geometry" />
        </mxCell>
        <mxCell id="luMjSmkIxEWVxP0uQIQx-14" value="+Especialista&lt;br&gt;+Área&lt;div&gt;+Tipo&lt;/div&gt;&lt;div&gt;+Archivo&lt;/div&gt;" style="align=left;strokeColor=none;fillColor=none;spacingLeft=4;fontSize=12;verticalAlign=top;resizable=0;rotatable=0;part=1;html=1;" vertex="1" parent="luMjSmkIxEWVxP0uQIQx-13">
          <mxGeometry y="50" width="160" height="70" as="geometry" />
        </mxCell>
        <mxCell id="luMjSmkIxEWVxP0uQIQx-17" value="Tiene" style="rhombus;whiteSpace=wrap;html=1;fontSize=14;fontStyle=0;startSize=50;rounded=1;strokeWidth=2;shadow=0;dashed=0;arcSize=4;" vertex="1" parent="1">
          <mxGeometry x="100" y="260" width="80" height="50" as="geometry" />
        </mxCell>
        <mxCell id="luMjSmkIxEWVxP0uQIQx-19" style="edgeStyle=orthogonalEdgeStyle;rounded=0;orthogonalLoop=1;jettySize=auto;html=1;entryX=0.5;entryY=0;entryDx=0;entryDy=0;endArrow=none;endFill=0;" edge="1" parent="1" source="luMjSmkIxEWVxP0uQIQx-6" target="luMjSmkIxEWVxP0uQIQx-17">
          <mxGeometry relative="1" as="geometry" />
        </mxCell>
        <mxCell id="luMjSmkIxEWVxP0uQIQx-35" style="edgeStyle=orthogonalEdgeStyle;rounded=0;orthogonalLoop=1;jettySize=auto;html=1;entryX=0;entryY=0.25;entryDx=0;entryDy=0;endArrow=none;endFill=0;" edge="1" parent="1" source="luMjSmkIxEWVxP0uQIQx-22" target="luMjSmkIxEWVxP0uQIQx-10">
          <mxGeometry relative="1" as="geometry" />
        </mxCell>
        <mxCell id="luMjSmkIxEWVxP0uQIQx-22" value="Asiste" style="rhombus;whiteSpace=wrap;html=1;fontSize=14;fontStyle=0;startSize=50;rounded=1;strokeWidth=2;shadow=0;dashed=0;arcSize=4;" vertex="1" parent="1">
          <mxGeometry x="260" y="112.5" width="80" height="45" as="geometry" />
        </mxCell>
        <mxCell id="luMjSmkIxEWVxP0uQIQx-26" style="edgeStyle=orthogonalEdgeStyle;rounded=0;orthogonalLoop=1;jettySize=auto;html=1;entryX=0.5;entryY=0;entryDx=0;entryDy=0;" edge="1" parent="1" source="luMjSmkIxEWVxP0uQIQx-14" target="luMjSmkIxEWVxP0uQIQx-9">
          <mxGeometry relative="1" as="geometry" />
        </mxCell>
        <mxCell id="luMjSmkIxEWVxP0uQIQx-29" value="Accede" style="rhombus;whiteSpace=wrap;html=1;fontSize=14;fontStyle=0;startSize=50;rounded=1;strokeWidth=2;shadow=0;dashed=0;arcSize=4;" vertex="1" parent="1">
          <mxGeometry x="290" y="410" width="80" height="40" as="geometry" />
        </mxCell>
        <mxCell id="luMjSmkIxEWVxP0uQIQx-36" value="Atiende" style="rhombus;whiteSpace=wrap;html=1;fontSize=14;fontStyle=0;startSize=50;rounded=1;strokeWidth=2;shadow=0;dashed=0;arcSize=4;" vertex="1" parent="1">
          <mxGeometry x="462.5" y="260" width="85" height="50" as="geometry" />
        </mxCell>
        <mxCell id="luMjSmkIxEWVxP0uQIQx-38" style="edgeStyle=orthogonalEdgeStyle;rounded=0;orthogonalLoop=1;jettySize=auto;html=1;entryX=0.5;entryY=0;entryDx=0;entryDy=0;endArrow=none;endFill=0;" edge="1" parent="1" source="luMjSmkIxEWVxP0uQIQx-10" target="luMjSmkIxEWVxP0uQIQx-36">
          <mxGeometry relative="1" as="geometry" />
        </mxCell>
        <mxCell id="luMjSmkIxEWVxP0uQIQx-41" style="rounded=0;orthogonalLoop=1;jettySize=auto;html=1;exitX=0.5;exitY=1;exitDx=0;exitDy=0;entryX=1;entryY=0;entryDx=0;entryDy=0;endArrow=none;endFill=0;" edge="1" parent="1" source="luMjSmkIxEWVxP0uQIQx-40" target="luMjSmkIxEWVxP0uQIQx-11">
          <mxGeometry relative="1" as="geometry" />
        </mxCell>
        <mxCell id="luMjSmkIxEWVxP0uQIQx-40" value="Contiene" style="shape=rhombus;perimeter=rhombusPerimeter;whiteSpace=wrap;html=1;align=center;" vertex="1" parent="1">
          <mxGeometry x="270" y="250" width="120" height="60" as="geometry" />
        </mxCell>
        <mxCell id="luMjSmkIxEWVxP0uQIQx-43" style="rounded=0;orthogonalLoop=1;jettySize=auto;html=1;exitX=0;exitY=1;exitDx=0;exitDy=0;" edge="1" parent="1" source="luMjSmkIxEWVxP0uQIQx-10" target="luMjSmkIxEWVxP0uQIQx-40">
          <mxGeometry relative="1" as="geometry" />
        </mxCell>
        <mxCell id="luMjSmkIxEWVxP0uQIQx-49" style="edgeStyle=orthogonalEdgeStyle;rounded=0;orthogonalLoop=1;jettySize=auto;html=1;" edge="1" parent="1" source="luMjSmkIxEWVxP0uQIQx-44" target="luMjSmkIxEWVxP0uQIQx-5">
          <mxGeometry relative="1" as="geometry" />
        </mxCell>
        <mxCell id="luMjSmkIxEWVxP0uQIQx-44" value="Carga" style="whiteSpace=wrap;html=1;fontSize=14;fontStyle=0;startSize=50;rounded=1;strokeWidth=2;shadow=0;dashed=0;arcSize=4;" vertex="1" parent="1">
          <mxGeometry x="80" y="-65" width="120" height="35" as="geometry" />
        </mxCell>
        <mxCell id="luMjSmkIxEWVxP0uQIQx-48" style="edgeStyle=orthogonalEdgeStyle;rounded=0;orthogonalLoop=1;jettySize=auto;html=1;exitX=0.5;exitY=0;exitDx=0;exitDy=0;entryX=1;entryY=0.5;entryDx=0;entryDy=0;endArrow=none;endFill=0;" edge="1" parent="1" source="luMjSmkIxEWVxP0uQIQx-46" target="luMjSmkIxEWVxP0uQIQx-44">
          <mxGeometry relative="1" as="geometry" />
        </mxCell>
        <mxCell id="luMjSmkIxEWVxP0uQIQx-46" value="Tiene" style="rhombus;whiteSpace=wrap;html=1;" vertex="1" parent="1">
          <mxGeometry x="200" y="-20" width="80" height="50" as="geometry" />
        </mxCell>
      </root>
    </mxGraphModel>
  </diagram>
</mxfile>
